<?xml version="1.0" encoding="utf-8"?>
<!-- Generator: Adobe Illustrator 23.0.2, SVG Export Plug-In . SVG Version: 6.00 Build 0)  -->
<svg version="1.1" id="Ebene_1" xmlns="http://www.w3.org/2000/svg" xmlns:xlink="http://www.w3.org/1999/xlink" x="0px" y="0px"
	 width="576px" height="1200px" viewBox="0 0 576 1200" style="enable-background:new 0 0 576 1200;" xml:space="preserve">
<style type="text/css">
	.st0{fill:#FFFFFF;stroke:#1E4B32;stroke-width:6;}
	.st1{fill:#00A451;}
	.st2{fill:none;stroke:#1E4B32;stroke-width:6;}
	.st3{fill:#AAAAAA;}
	.st4{fill:#CE1325;stroke:#1E4B32;stroke-width:6;stroke-linecap:round;stroke-linejoin:round;}
	.st5{fill:#F0BB14;stroke:#1E4B32;stroke-width:6;stroke-linecap:round;stroke-linejoin:round;}
	.st6{fill:none;stroke:#1E4B32;stroke-width:6;stroke-linecap:round;stroke-linejoin:round;}
	.st7{fill:#AAAAAA;stroke:#1E4B32;stroke-width:6;stroke-linecap:round;stroke-linejoin:round;}
	.st8{fill:#FFFFFF;stroke:#1E4B32;stroke-width:6;stroke-linecap:round;stroke-linejoin:round;}
	.st9{fill:#00A552;}
</style>
<g id="Car_oben">
	<g>
		<g>
			<path class="st0" d="M393.7,1191.3c36.3-3.3,56.4-18.5,56.4-18.5c43.7-30.8,63-61.9,66-67.8s5.6-12.2,10.4-21.5
				c10.4-20.4,8.9-27.1,10-38.2s3.3-88.6,3.7-101.2c0.4-12.6,2.5-58.9,2.5-66.7s-1.7-25.6-2.5-33.7c-0.7-8.2-1.9-23.7-1.5-23.7
				c2.6-96.7,2.2-179.4,2.2-222c0-6.7-0.1-15.1-0.2-24.7c0-6.8,0.2-9.6,0.1-15c-0.1-5.2-0.3-8.1-0.4-14.3
				c-0.7-49.6-2.1-110.9-3.2-132c-1.5-30.4-0.7-89.3-0.7-89.3c2.6-71.2,1.1-126,0-154.2s-5.9-54.1-5.9-54.1
				c-7.4-27.4-34.1-56.3-51.9-71.9s-45.2-26.7-45.2-26.7C405.7,4.3,290.7,4.4,290.7,4.4s-115-0.1-142.8,11.4
				c0,0-27.4,11.1-45.2,26.7S58.2,87,50.8,114.4c0,0-4.8,25.9-5.9,54.1s-2.6,83,0,154.2c0,0,0.7,58.9-0.7,89.3
				c-1,21.2-2.4,82.4-3.2,132c-0.3,5.4-0.4,9.2-0.5,14.3c-0.1,5.4,0,8.5,0.1,15c-0.1,9.6-0.2,18-0.2,24.7c0,42.6-0.4,125.3,2.2,222
				c0.4,0-0.7,15.6-1.5,23.7c-0.7,8.2-2.5,25.9-2.5,33.7s2.1,54.1,2.5,66.7s2.6,90.1,3.7,101.2s-0.4,17.8,10,38.2
				c4.8,9.3,7.4,15.6,10.4,21.5s22.2,37.1,66,67.8c0,0,20.1,15.2,56.4,18.5c0,0,65.4,5.1,103.1,5.1S393.7,1191.3,393.7,1191.3z"/>
		</g>
		<path class="st1" d="M439.7,714.4c0,0-1.3-36.1,4.6-57.9c6-21.8,10.9-37.5,16.8-47.6c8.6,4.7,35,21.3,54.4,42.3
			c19.3,21,25,33.4,25,33.4s-4.7,134.5-3.6,145.2c1.1,10.7,10.9,55.1-0.2,217.3c-2.9,42.3-31.4,71.6-52.1,94.5
			c-63.7,70.4-165.6,53.7-241.1,51.6c-100.2-2.8-118-15.4-172-73.4c-26.3-28.2-32.8-86.4-33.9-175.5c-0.9-75.1,1.6-144.5,1.6-144.5
			s24.5-48.5,44.1-65c3.6,3.6,16,16.8,16.7,19.4c0.8-6.8,4.9-47,38.4-74.7L439.7,714.4z"/>
		<g>
			<path class="st2" d="M393.7,1191.3c36.3-3.3,56.4-18.5,56.4-18.5c43.7-30.8,63-61.9,66-67.8s5.6-12.2,10.4-21.5
				c10.4-20.4,8.9-27.1,10-38.2s3.3-88.6,3.7-101.2c0.4-12.6,2.5-58.9,2.5-66.7s-1.7-25.6-2.5-33.7c-0.7-8.2-1.9-23.7-1.5-23.7
				c2.6-96.7,2.2-179.4,2.2-222c0-6.7-0.1-15.1-0.2-24.7c0-6.8,0.2-9.6,0.1-15c-0.1-5.2-0.3-8.1-0.4-14.3
				c-0.7-49.6-2.1-110.9-3.2-132c-1.5-30.4-0.7-89.3-0.7-89.3c2.6-71.2,1.1-126,0-154.2s-5.9-54.1-5.9-54.1
				c-7.4-27.4-34.1-56.3-51.9-71.9s-45.2-26.7-45.2-26.7C405.7,4.3,290.7,4.4,290.7,4.4s-115-0.1-142.8,11.4
				c0,0-27.4,11.1-45.2,26.7S58.2,87,50.8,114.4c0,0-4.8,25.9-5.9,54.1s-2.6,83,0,154.2c0,0,0.7,58.9-0.7,89.3
				c-1,21.2-2.4,82.4-3.2,132c-0.3,5.4-0.4,9.2-0.5,14.3c-0.1,5.4,0,8.5,0.1,15c-0.1,9.6-0.2,18-0.2,24.7c0,42.6-0.4,125.3,2.2,222
				c0.4,0-0.7,15.6-1.5,23.7c-0.7,8.2-2.5,25.9-2.5,33.7s2.1,54.1,2.5,66.7s2.6,90.1,3.7,101.2s-0.4,17.8,10,38.2
				c4.8,9.3,7.4,15.6,10.4,21.5s22.2,37.1,66,67.8c0,0,20.1,15.2,56.4,18.5c0,0,65.4,5.1,103.1,5.1S393.7,1191.3,393.7,1191.3z"/>
		</g>
	</g>
	<g>
		<g>
			<path class="st1" d="M64.6,211.3c0,0-2.2,4.8-1.5,11.3c0.8,6.5,3.9,9.7,3.9,9.7s2.2-4.8,1.5-11.3S64.6,211.3,64.6,211.3z"/>
		</g>
		<g>
			<path class="st1" d="M101.7,201.3c0,0-3.2,1.8-5.1,5.9c-1.9,4.1-1.1,7.3-1.1,7.3s3.2-1.8,5.1-5.9
				C102.5,204.5,101.7,201.3,101.7,201.3z"/>
		</g>
	</g>
	<path class="st3" d="M440.7,73.3c0,0,8.3,5.7,5.2,15.5s-15,37.7-22.7,43.9c0,0-64-19.1-136.3-19.1s-134.2,20.1-134.2,20.1
		s-20.6-34.6-20.1-50.1s48-25.8,48-25.8S241,49,286.4,49s105.8,8.8,105.8,8.8L440.7,73.3z"/>
	<path class="st4" d="M190.5,29.6c0,0-7.2,8.6-32,15.1s-32.6,11-45,20.6c-7.6,5.8-14.1,12.4-20.3,27.9l-24.4,24.1
		c0,0-0.3-33.4,25.8-55c26.1-21.6,40.6-23,53.3-26.5C160.6,32.4,190.5,29.6,190.5,29.6z"/>
	<path class="st5" d="M67.9,1050.3c0,0-2.8,22.5,1.4,31.2c4.1,8.7,30.7,58.7,92.2,80.2c0,0-1.4-6.9-9.2-13.3
		C152.2,1148.4,115.5,1124.1,67.9,1050.3z"/>
	<path class="st6" d="M61.5,274.1c0,0-14.8,21.5-2.3,45.8"/>
	<path class="st6" d="M54.8,532.3c0,0-14.3,21.9-1.1,45.9"/>
	<path class="st6" d="M89.7,898.3c-2.8,25-7.6,81.5,0.2,155.3"/>
	<path class="st4" d="M386.4,29.6c0,0,7.2,8.6,32,15.1s32.6,11,45,20.6c7.6,5.8,14.1,12.4,20.3,27.9l24.4,24.1c0,0,0.3-33.4-25.8-55
		c-26.1-21.7-40.6-23-53.3-26.5C416.3,32.4,386.4,29.6,386.4,29.6z"/>
	<path class="st5" d="M509,1050.3c0,0,2.8,22.5-1.4,31.2c-4.1,8.7-30.7,58.7-92.2,80.2c0,0,1.4-6.9,9.2-13.3c0,0,11.4-7.6,29.8-27
		C469,1105.9,487.9,1083,509,1050.3z"/>
	<path class="st6" d="M516.4,274.1c0,0,14.8,21.5,2.3,45.8"/>
	<path class="st6" d="M526.1,532.3c0,0,14.3,21.9,1.1,45.9"/>
	<path class="st2" d="M438.8,636.3c-18.6-100.4-15.3-502.8-15.3-502.8s-117.2-44.2-270.1,0c0,0-0.2,413.8-15.8,502.8"/>
	<path class="st6" d="M398.9,1155.8c0,0-49.4,9.4-111.3,9.4h1.6c-61.9,0-104.3-8.6-104.3-8.6"/>
	<path class="st6" d="M493.1,884.9c1.7,25.1,6.6,99.6-1.2,164.1"/>
	<path class="st7" d="M442.2,661c0,0,21.3,125.9,35.1,182.3c0,0-140.8,84.6-379.2,3.9L136.2,661C136.2,661,292.1,696.8,442.2,661z"
		/>
	<g>
		<path class="st7" d="M501.8,239.6c0,0,9.1,221.9,9.1,261.1L453,480.3c0,0,1.1-149.7,6.6-208.4c0,0-0.9-12.8,28-33.5
			C487.6,238.5,495.4,233.9,501.8,239.6z"/>
		<path class="st7" d="M511.2,500.1c0,0,6.6,220.7,4.2,258.1c-1,16.1-4.3,62.2-4.3,62.2l-5.5,6.5l-17.8-66c0,0-23.4-95.4-27.5-133.4
			c-4.1-38.1-7.4-147.2-7.4-147.2L511.2,500.1z"/>
		<path class="st6" d="M534.9,284.1c0,0-4-19.3-20.9-35.8"/>
		<line class="st6" x1="539.2" y1="505.1" x2="511.2" y2="500.1"/>
	</g>
	<g>
		<path class="st7" d="M77,239.6c0,0-9.1,221.9-9.1,261.1l57.9-20.3c0,0-1.1-149.7-6.6-208.4c0,0,0.9-12.8-28-33.5
			C91.2,238.5,83.4,233.9,77,239.6z"/>
		<path class="st7" d="M67.6,500.1c0,0-6.6,220.7-4.2,258.1c1.3,21.1,2.2,61,2.2,61l7.6,7.7l17.8-66c0,0,23.4-95.4,27.5-133.4
			s7.3-147.1,7.3-147.1L67.6,500.1z"/>
		<path class="st6" d="M43.9,284.1c0,0,4-19.3,20.9-35.8"/>
		<line class="st6" x1="41.5" y1="504.6" x2="69.5" y2="499.6"/>
	</g>
	<path class="st6" d="M469.4,124.9c0,0-8.3,7.2-17.5,8.8c-8.1,1.3-28.1-0.1-28.1-0.1c5.8-6.2,10.7-14.4,10.7-14.4s0.9-2.8,9.6-21.1
		s-6.9-26.6-6.9-26.6c-31.6-17.4-131.1-22-131.1-22s-18.1-0.1-33.3,0c-33.2,0.2-99.5,4.6-131.1,22c0,0-15.6,8.3-6.9,26.6
		s9.6,21.1,9.6,21.1s4.9,8.3,10.7,14.4c0,0-20,1.5-28.1,0.1c-9.3-1.5-17.5-8.8-17.5-8.8"/>
	<path class="st8" d="M513,751.4l-1,55.3c0,0,14.2-19.7,24.8-28.2c10.5-8.5,22-22.9,22-22.9s14.2-19,7.6-34.2
		C566.3,721.3,530.9,746.8,513,751.4z"/>
	<path class="st8" d="M513,751.4c0,0,29.1-11.6,52.2-30.1c0,0,0.1-4.7-8.4-3.5c-10.2,1.4-43.7,25.2-43.7,25.2L513,751.4z"/>
	<path class="st8" d="M64.7,751.8l1.5,55c0,0-15.6-19.8-26.2-28.3s-22-22.9-22-22.9s-14.2-19-7.6-34.2
		C10.5,721.3,46.9,747.2,64.7,751.8z"/>
	<path class="st8" d="M64.7,750.9c0,0-30.6-11.5-53.7-30.1c0,0,0.6-3.6,8.5-2.8c9.7,1.1,44.8,24.3,44.8,24.3L64.7,750.9z"/>
</g>
<g id="Logo_1_">
	<g>
		<path class="st9" d="M378.2,382.9c3.2-3.2,3.7-8.3,1-12.1c-1.8-2.4-4.7-3.8-7.6-3.8h-38.5c-0.4,0-0.7-0.3-0.7-0.7v-35
			c0-21.8-18.8-46-45.7-46c-28.2,0-45.7,23.9-45.7,46v34.5c0,0.4-0.3,0.7-0.7,0.7h-28.6c-0.4,0-0.7-0.3-0.7-0.7v-34.5
			c0-41.9,34-76,75.8-76c39.8,0,76,36.2,76,76v13.6c0,5.1,4.1,9.3,9.2,9.3c5.1,0,9.2-4.1,9.2-9.3v-13.6c0-24.7-10.4-48.3-29.2-66.7
			c-18.1-17.7-41.9-27.8-65.2-27.8c-51.9,0-94.2,42.4-94.2,94.5v52.9c0,0.8,0.7,1.5,1.5,1.5h64c0.8,0,1.5-0.7,1.5-1.5v-52.9
			c0-13.2,10.4-27.5,27.3-27.5c15.6,0,27.3,14.5,27.3,27.5v52.8c0,0.8,0.7,1.5,1.5,1.5h32.1c1,0,1.2,0.6,0.5,1.2l-60.8,59.8
			c-0.3,0.3-0.7,0.3-1,0L227,398.2c-3.9-3.3-9.7-2.8-13,1.1c-1.5,1.7-2.2,3.9-2.2,6c0,2.6,1.1,5.2,3.3,7.1l66.4,54.3
			c3.6,3.1,9,2.9,12.4-0.5L378.2,382.9z"/>
	</g>
</g>
</svg>
